<svg width="394" height="27" viewBox="0 0 394 27" fill="none" xmlns="http://www.w3.org/2000/svg">
<path d="M334.258 9.71716C334.143 9.72554 334.027 9.72331 333.912 9.71108C297.269 6.09419 260.455 4.49675 223.636 4.92657C196.491 5.14533 168.232 6.27889 139.447 8.29781C134.843 8.62073 130.227 8.96567 125.598 9.33377C95.7327 11.7091 70.9319 14.605 55.3795 16.616C38.5445 18.7922 28.6541 20.4257 28.557 20.4415C28.4909 20.4521 28.4275 20.4594 28.3677 20.4636C27.8712 20.4981 27.3794 20.347 26.9888 20.0385C26.5983 19.73 26.3369 19.2867 26.2556 18.7958C26.1686 18.2728 26.2932 17.7364 26.6013 17.305C26.9094 16.8736 27.3756 16.5829 27.8984 16.4955C27.9975 16.4785 37.9587 14.8334 54.8653 12.6481C70.4624 10.6309 95.3312 7.72844 125.278 5.34637C129.917 4.97824 134.545 4.63245 139.163 4.30789C168.031 2.28316 196.372 1.14864 223.602 0.927917C260.568 0.496559 297.529 2.10146 334.318 5.7354C334.846 5.78993 335.329 6.05107 335.664 6.4624C335.998 6.87372 336.156 7.40107 336.102 7.92847C336.054 8.39554 335.842 8.83086 335.505 9.15783C335.168 9.4848 334.726 9.68289 334.258 9.71716Z" fill="#FF9D4D"/>
<path d="M391.55 26.3973C391.369 26.4098 391.187 26.3983 391.01 26.3617C355.871 19.2117 313.594 13.9941 265.349 10.8539C226.727 8.34095 184.224 7.14589 139.019 7.30405C98.7931 7.4438 63.8344 8.65133 41.591 9.64002C18.7391 10.6554 4.2817 11.6557 2.72552 11.7649L2.58329 11.7748C2.05416 11.8119 1.53209 11.6372 1.1317 11.2893C0.731302 10.9414 0.485373 10.4488 0.448261 9.91967C0.411149 9.39054 0.585916 8.86847 0.933827 8.46808C1.28174 8.06768 1.7743 7.82175 2.30343 7.78464L2.44371 7.7748C4.00388 7.66537 18.5129 6.66541 41.4154 5.64251C63.6957 4.65223 98.7146 3.44331 139.007 3.30285C184.307 3.14503 226.896 4.3425 265.612 6.86089C288.607 8.3557 310.471 10.3433 330.596 12.7642C352.749 15.4279 373.344 18.6874 391.811 22.4416C392.33 22.5476 392.786 22.856 393.079 23.2983C393.371 23.7406 393.476 24.2805 393.37 24.8002C393.283 25.2289 393.058 25.6178 392.729 25.9063C392.4 26.1948 391.986 26.3668 391.55 26.3973Z" fill="#FF9D4D"/>
</svg>
